<svg width="160" height="160" viewBox="0 0 160 160" fill="none" xmlns="http://www.w3.org/2000/svg">
<rect width="160" height="160" rx="20" fill="#00AED9"/>
<path fill-rule="evenodd" clip-rule="evenodd" d="M114.273 36.8937C114.159 36.7802 113.932 36.6667 113.705 36.6667H47.395C47.1679 36.6667 46.9409 36.7802 46.8274 36.8937C46.7138 37.1208 46.6002 37.3479 46.7138 37.575L57.8411 104.907C57.9546 105.247 58.1818 105.588 58.636 105.588H72.2612L73.1696 116.602H67.3788L80.7771 130L94.1753 116.602H88.3845L89.2929 105.702H103.145C103.486 105.702 103.827 105.474 103.94 105.02L114.386 37.6886C114.5 37.2344 114.386 37.0073 114.273 36.8937ZM88.7252 90.8273C88.7252 90.8273 85.6595 93.893 80.7771 93.5524C75.8947 93.893 72.829 90.8273 72.829 90.8273C67.833 85.8313 69.6497 79.7 71.3528 76.5207C72.3747 74.4769 80.0958 63.0089 80.6635 62.1005V61.987V62.1005C81.3448 63.1224 88.9523 74.5905 89.9742 76.5207C91.9044 79.7 93.6076 85.8313 88.7252 90.8273ZM109.731 51.0868C107.914 50.2919 105.643 50.6326 103.486 51.4274C95.3107 54.7202 89.6335 55.9692 81.0041 53.2441C75.554 51.541 70.4445 48.0211 64.4267 50.1784C60.4526 51.6545 56.7057 53.017 52.1639 52.9035L49.5524 39.5053H111.548L109.731 51.0868Z" fill="white"/>
</svg>
