<svg width="160" height="160" viewBox="0 0 160 160" fill="none" xmlns="http://www.w3.org/2000/svg">
<rect width="160" height="160" rx="20" fill="#007DBC"/>
<path fill-rule="evenodd" clip-rule="evenodd" d="M31.2628 79.1504C46.303 80.6429 53.6509 95.6832 53.6509 95.6832C53.6509 95.6832 73.2836 79.1504 91.5385 79.1504C112.549 79.1504 127.589 98.3239 129.885 101.424L130 101.538V101.998C130 102.112 130 102.113 129.885 102.227C127.589 105.327 112.549 124.501 91.5385 124.501C73.1688 124.501 53.6509 107.968 53.6509 107.968C53.6509 107.968 53.647 107.976 53.6393 107.991L53.547 108.17C52.5982 109.97 45.1628 123.217 31.1481 124.501H30.9186C30.5741 124.501 30.3444 124.271 30.3444 123.927C30.3444 123.812 30.4592 123.697 30.4592 123.582L30.5741 123.352C32.5259 120.138 37.4628 110.953 37.4628 101.768C37.4628 92.6979 32.5259 83.5132 30.5741 80.2985C30.5741 80.2985 30.3444 79.9542 30.3444 79.7245C30.3444 79.4949 30.5741 79.1504 30.9186 79.1504H31.2628ZM103.134 92.0093C99.69 92.0093 96.9346 94.6498 96.9346 98.0941C96.9346 101.538 99.69 104.294 103.134 104.294C106.579 104.294 109.334 101.538 109.334 98.0941C109.334 94.7646 106.579 92.0093 103.134 92.0093ZM53.4214 55.0403C53.6511 55.0403 53.6511 55.155 53.7659 55.2698C56.4065 57.2216 68.4616 65.373 79.139 55.3845L79.2537 55.2698C79.3686 55.2698 79.5981 55.155 79.7129 55.155C79.9426 55.155 80.0573 55.155 80.1721 55.2698L80.2871 55.3845C90.9645 65.373 103.02 57.2216 105.66 55.2698C105.775 55.155 105.89 55.0403 106.005 55.0403H106.234C106.349 55.0403 106.349 55.155 106.464 55.155L106.694 55.3845C115.419 63.6509 125.178 59.9771 128.278 58.3698C128.393 58.3698 128.507 58.2548 128.622 58.2548H128.737C129.082 58.2548 129.311 58.4845 129.311 58.8289V63.077C129.311 63.3066 129.196 63.4214 129.081 63.5362C118.863 72.3766 109.219 64.1103 107.038 61.9289C107.038 61.9289 107.038 61.814 106.923 61.814C106.808 61.6992 106.693 61.6992 106.579 61.6992C106.349 61.6992 106.234 61.6992 106.119 61.814C94.6383 72.721 82.5832 63.8806 80.0574 61.814L79.8279 61.5845H79.3685L79.139 61.814C76.6132 63.8806 64.558 72.721 53.077 61.814C52.9622 61.814 52.7324 61.6992 52.6176 61.6992C52.5028 61.6992 52.388 61.6992 52.2732 61.814C52.2732 61.814 52.1584 61.8141 52.1584 61.9289C49.977 64.1103 40.333 72.3766 30.3444 63.5362C30.2296 63.4214 30.1147 63.3066 30.1147 63.077V58.8289C30.1147 58.4845 30.3445 58.2548 30.6889 58.2548H30.8036C30.9184 58.2548 31.0333 58.3698 31.1481 58.3698C34.248 59.9771 43.8921 63.6509 52.7325 55.3845L52.962 55.155C53.0768 55.0402 53.0769 55.0403 53.1917 55.0403H53.4214ZM53.5362 40C53.7658 40 53.7658 40.1149 53.8806 40.2297C56.5213 42.1815 68.5764 50.333 79.2537 40.3444L79.3685 40.2297C79.4833 40.1149 79.7131 40 79.8279 40C80.0575 40 80.1723 40.1149 80.2871 40.2297L80.4018 40.3444C91.0792 50.333 103.134 42.1815 105.775 40.2297C105.89 40.1149 106.005 40 106.119 40H106.579L106.808 40.2297C115.534 48.4961 125.293 44.8221 128.393 43.2147C128.508 43.2147 128.622 43.1 128.737 43.1H128.852C129.196 43.1 129.426 43.3295 129.426 43.6739V47.922C129.426 48.1516 129.311 48.2663 129.196 48.3811C118.978 57.2216 109.334 48.9553 107.153 46.7739C107.153 46.7739 107.153 46.6589 107.038 46.6589C106.923 46.5441 106.808 46.5442 106.694 46.5442C106.464 46.5442 106.349 46.5441 106.234 46.6589C94.7531 57.5659 82.6979 48.7255 80.1721 46.6589L79.9426 46.4294H79.4834L79.2537 46.6589C76.7279 48.7255 64.6728 57.5659 53.1917 46.6589C53.0769 46.6589 52.8474 46.5442 52.7325 46.5442C52.6177 46.5442 52.5029 46.5441 52.3881 46.6589C52.3881 46.6589 52.2732 46.6591 52.2732 46.7739C49.9769 48.9553 40.4478 57.2216 30.2297 48.3811C30.1149 48.2663 30 48.1516 30 47.922V43.6739C30 43.3295 30.2297 43.1 30.5741 43.1H30.6889C30.8037 43.1 30.9184 43.2147 31.2628 43.2147L31.7625 43.4637C35.3018 45.1626 44.4381 48.202 52.8473 40.2297L53.077 40H53.5362Z" fill="white"/>
</svg>
