<svg width="34" height="48" viewBox="0 0 34 48" fill="none" xmlns="http://www.w3.org/2000/svg">
<path d="M9.12288 16.4353L13.6127 17.693L13.5321 18.148L9.12288 16.912V16.4353ZM7.44274 16.2195V16.7039L1.87707 18.148L1.75209 17.6946L7.44274 16.2195ZM17.3828 15.2195L14.4734 18.0377L14.1079 17.7412L16.7104 15.2195H17.3828ZM2.7298 12.0519L7.44274 15.2413V15.808L2.4561 12.4386L2.7298 12.0519ZM9.0944 8.3502L8.54226 14.9136H8.0629L8.61504 8.3502H9.0944ZM9.83796 7.53346L15.1568 9.49767V10.0008L9.83796 8.03654V7.53346ZM4.36406 7.17633L8.18946 7.23533V7.70736L4.36406 7.6437V7.17633ZM16.1709 13.26C16.8928 12.5787 18.0406 12.6002 18.7354 13.3081C19.1716 13.7524 19.3374 14.3801 19.1916 14.9659L22.629 16.5503C22.7546 16.3021 22.9249 16.0704 23.1399 15.867C23.6239 15.409 24.2737 15.1587 24.946 15.1716C25.6182 15.1844 26.2577 15.4592 26.7232 15.9353C27.6906 16.9248 27.6582 18.4964 26.6509 19.4467C25.6435 20.3969 24.0422 20.3664 23.0732 19.3785C22.4295 18.7221 22.2265 17.8082 22.4578 16.9895L19.0174 15.4044C18.6945 15.9789 18.0714 16.3372 17.3939 16.3244C16.66 16.3107 16.0068 15.8642 15.739 15.1933C15.4713 14.5225 15.6417 13.7593 16.1709 13.26ZM1.84816 16.1436C2.32993 16.1523 2.78834 16.3489 3.12215 16.69C3.81682 17.3985 3.79504 18.5255 3.07349 19.2076C2.35195 19.8897 1.20367 19.8689 0.5083 19.1611C-0.18707 18.4532 -0.1664 17.3262 0.554477 16.6434C0.900901 16.3147 1.3664 16.1348 1.84816 16.1436ZM14.1327 16.7522C14.4475 16.7581 14.7471 16.8865 14.9654 17.1092C15.4217 17.5716 15.4099 18.3095 14.939 18.7576C14.4682 19.2057 13.7164 19.1946 13.2595 18.7328C12.8026 18.2709 12.8134 17.5331 13.2837 17.0844L13.2868 17.0781C13.5136 16.8637 13.8178 16.7464 14.1327 16.7522ZM6.65646 14.3795C7.6812 13.4146 9.30789 13.4445 10.2952 14.4463C11.021 15.1827 11.2228 16.276 10.8063 17.2156C10.3898 18.1552 9.43725 18.7556 8.39346 18.7364C7.34967 18.7173 6.42062 18.0823 6.04021 17.1282C5.6598 16.174 5.90309 15.0888 6.65646 14.3795ZM14.2683 0.707044C14.8821 -0.0918152 16.0162 -0.2351 16.8038 0.386705C17.3808 0.843131 17.6305 1.60799 17.4363 2.3245C17.346 2.65769 17.168 2.9499 16.9304 3.17641L17.8098 4.44378C17.8806 4.40515 17.9557 4.3737 18.034 4.35024C18.335 4.26008 18.659 4.29547 18.9343 4.4486C19.0352 4.5046 19.125 4.57338 19.2026 4.65191L20.8024 3.7974C20.5661 3.05649 20.7541 2.23669 21.3011 1.67767C21.6855 1.28418 22.208 1.06209 22.7536 1.06028C23.2992 1.05849 23.8231 1.27712 24.21 1.66806C24.801 2.2642 24.9803 3.1635 24.6644 3.94647C24.6211 4.05384 24.5696 4.15613 24.5109 4.2527L27.0285 5.91734C27.3022 5.63934 27.6648 5.46691 28.0532 5.43315C28.4889 5.3953 28.9214 5.53491 29.2557 5.82125C29.7666 6.25799 29.9683 6.96463 29.7666 7.61145C29.6554 7.96778 29.4339 8.26727 29.1462 8.47407L31.1699 12.8394C31.3335 12.7942 31.5039 12.7722 31.6765 12.7755C32.1547 12.7845 32.6098 12.9863 32.9415 13.3364C33.4495 13.8706 33.5905 14.6633 33.2988 15.3445C33.0072 16.0257 32.3403 16.461 31.6095 16.4472C30.8788 16.4335 30.2282 15.9733 29.9616 15.2816C29.7972 14.8552 29.7987 14.3926 29.9476 13.9799L27.0683 12.9327C26.9908 13.0596 26.8966 13.1788 26.7859 13.287C26.0673 13.9898 24.9243 13.9676 24.2328 13.2374C23.6295 12.6005 23.5689 11.6352 24.0399 10.9324L22.8335 9.7198C22.6766 9.82605 22.4938 9.89474 22.2981 9.91496C21.8219 9.9642 21.3635 9.7166 21.1372 9.2879C20.9108 8.8592 20.9613 8.33405 21.2649 7.95791H21.2586C21.4565 7.71033 21.7433 7.55307 22.0556 7.52091C22.3678 7.48875 22.6798 7.58434 22.9226 7.78653C23.2945 8.09284 23.4479 8.59691 23.3111 9.06315C23.2781 9.17577 23.2297 9.28081 23.1686 9.37606L24.3577 10.5714C25.0792 9.94203 26.1674 9.98731 26.8353 10.692C27.3024 11.1857 27.4438 11.8763 27.2646 12.4891L30.1714 13.548C30.236 13.4558 30.3096 13.3687 30.3919 13.2884C30.4961 13.1862 30.6111 13.0981 30.734 13.0252L28.7212 8.69379C28.5977 8.73612 28.468 8.76396 28.3343 8.77557C27.6692 8.83337 27.0353 8.47805 26.7285 7.87541C26.4742 7.37587 26.4862 6.78802 26.7429 6.30616L24.2145 4.63305C23.8375 5.01545 23.3208 5.24273 22.767 5.24457C22.0381 5.24697 21.3709 4.85841 21.0007 4.23768L19.4657 5.05732C19.5916 5.37802 19.5813 5.75118 19.406 6.07804C19.0937 6.66042 18.3762 6.87535 17.8031 6.55817C17.23 6.24099 17.0183 5.51174 17.3301 4.92911C17.363 4.86752 17.4008 4.80941 17.4431 4.75527L16.545 3.45732C16.3531 3.5615 16.1409 3.63137 15.9167 3.6597C15.1911 3.75137 14.4827 3.38965 14.1218 2.74327C14.0495 2.61375 13.994 2.47792 13.9551 2.33879L11.3949 2.85137C11.3894 3.47408 10.912 3.99631 10.2908 4.03793C9.64022 4.08153 9.07778 3.5813 9.03393 2.92006C8.99007 2.25881 9.48137 1.68639 10.1319 1.64083C10.4455 1.61887 10.7548 1.72481 10.9914 1.93521C11.1281 2.05682 11.234 2.20754 11.303 2.37466L13.8865 1.86002C13.8814 1.45128 14.0104 1.04335 14.2683 0.707044ZM1.33443 10.9619C2.05735 10.2834 3.20319 10.3063 3.89736 11.0131C4.40648 11.5325 4.54652 12.3018 4.25212 12.962C3.95773 13.6223 3.28693 14.0433 2.55277 14.0286C1.81862 14.0139 1.16585 13.5664 0.899092 12.895C0.632333 12.2235 0.804178 11.4605 1.33443 10.9619ZM13.4166 7.97288C14.4488 7.00044 16.0885 7.0324 17.0806 8.04431C17.8069 8.78601 18.0064 9.88408 17.5862 10.8265C17.1659 11.7689 16.2087 12.37 15.1607 12.3496C14.1128 12.3292 13.1806 11.6912 12.7988 10.7332C12.417 9.77512 12.6608 8.68569 13.4166 7.97288ZM7.76073 6.20121C8.48331 5.52182 9.62987 5.54474 10.3237 6.25245C10.8317 6.77156 10.971 7.53994 10.6767 8.19922C10.3824 8.8585 9.71237 9.27882 8.97915 9.26416C8.24593 9.2495 7.59392 8.80275 7.3272 8.13225C7.06048 7.46176 7.23159 6.69959 7.76073 6.20121ZM3.64581 6.59716C4.11909 6.1551 4.86703 6.17035 5.3212 6.63132C5.6552 6.97121 5.74737 7.47525 5.55465 7.90792C5.36193 8.3406 4.92236 8.61649 4.44133 8.60668C3.96031 8.59687 3.53279 8.3033 3.35854 7.86315C3.1843 7.42299 3.29772 6.92314 3.64581 6.59716Z" fill="#00AAAA"/>
<path d="M29.8547 19.7681C28.83 20.5201 28.1039 21.4092 27.7865 22.7109C27.7865 22.7109 27.7771 22.7109 27.7723 22.7109C26.7037 26.3755 23.6862 30.1851 19.4666 30.3397C14.9577 30.499 12.9807 28.5058 13.2321 27.177C13.746 24.4285 19.4147 27.2566 21.8758 25.1742C23.6815 23.6478 23.1535 21.8569 22.3284 21.371C21.3179 20.7767 20.0496 21.5749 14.3134 21.2658C9.12717 20.9822 3.29819 20.5998 0.668945 22.601C2.57064 30.7614 10.1002 36.2634 18.3376 35.5119C26.5751 34.7604 33.0148 27.9839 33.4489 19.6104C33.4489 19.4877 33.4363 19.3618 33.4332 19.2375C32.2655 19.04 30.7992 19.0734 29.8547 19.7681Z" fill="#00AAAA"/>
<path d="M20.5473 46.3349C20.0002 47.3615 18.9353 48.0016 17.7773 48H16.0093C14.85 48.0016 13.7838 47.3618 13.2345 46.3349H20.5473ZM23.0668 43.1115C23.3363 43.111 23.5948 43.2184 23.7854 43.4099C23.9761 43.6014 24.0832 43.8612 24.0832 44.1322C24.0832 44.6971 23.6284 45.1553 23.0668 45.1562H10.7182C10.173 45.1562 9.72792 44.7251 9.70144 44.1833L9.7002 44.1322C9.7002 43.861 9.80755 43.6008 9.99854 43.4093C10.1895 43.2178 10.4485 43.1106 10.7182 43.1115H23.0668ZM23.0668 39.963C23.6281 39.9648 24.0823 40.4225 24.0832 40.987C24.0836 41.2586 23.9768 41.5192 23.7862 41.7115C23.5956 41.9038 23.3368 42.0121 23.0668 42.0125H10.7182C10.4479 42.0125 10.1887 41.9044 9.99779 41.7121C9.82048 41.5334 9.7155 41.2958 9.70174 41.0451L9.7002 40.987C9.70107 40.4218 10.1563 39.9639 10.7182 39.963H23.0668ZM23.0668 36.9231C23.3371 36.9235 23.5961 37.032 23.7867 37.2247C23.9774 37.4173 24.0841 37.6784 24.0832 37.9502C24.0815 38.5141 23.6274 38.9708 23.0668 38.9726H10.7182C10.1745 38.9717 9.73048 38.5429 9.70168 38.0028L9.7002 37.9502C9.69978 37.6782 9.80679 37.4172 9.99769 37.2246C10.1886 37.0319 10.4478 36.9235 10.7182 36.9231H23.0668Z" fill="#00AAAA"/>
</svg>
