<svg width="160" height="160" viewBox="0 0 160 160" fill="none" xmlns="http://www.w3.org/2000/svg">
<rect width="160" height="160" rx="20" fill="#F36D25"/>
<path fill-rule="evenodd" clip-rule="evenodd" d="M125.756 85.1852L104.016 72.7181V47.6705C104.016 47.1038 103.789 46.6505 103.22 46.4239L80.683 33.5033C80.2277 33.2767 79.6586 33.2767 79.2033 33.5033L56.6667 46.4239C56.2114 46.6505 55.87 47.2172 55.87 47.6705V72.7181L34.1301 85.1852C33.6748 85.4118 33.3334 85.9786 33.3334 86.4319V112.273C33.3334 112.84 33.561 113.293 34.1301 113.52L56.6667 126.44C56.8944 126.553 57.122 126.667 57.4634 126.667C57.6911 126.667 58.0325 126.553 58.2601 126.44L80 113.973L101.74 126.44C101.968 126.553 102.195 126.667 102.537 126.667C102.878 126.667 103.106 126.553 103.333 126.44L125.87 113.52C126.325 113.293 126.667 112.726 126.667 112.273V86.4319C126.439 85.8652 126.211 85.4118 125.756 85.1852ZM78.4066 109.779L60.3091 99.3523L78.4066 88.9253V109.779ZM99.4635 73.5115L81.3658 83.9385V63.1978L99.4635 73.5115ZM78.4066 83.8252L60.3091 73.3982L78.4066 62.9711V83.8252ZM82.9594 86.4319L102.537 75.2115L122.114 86.4319L102.537 97.6523L82.9594 86.4319ZM100.943 70.9047L82.8455 60.4776L100.943 50.0506V70.9047ZM76.9269 60.591L58.8294 71.018V50.2773L76.9269 60.591ZM55.9837 122.7L36.4065 111.48V89.0387L55.9837 100.259V122.7ZM58.9431 122.7V101.959L77.0407 112.386L58.9431 122.7ZM123.48 111.48L103.902 122.7V100.259L123.48 89.0387V111.48Z" fill="white"/>
</svg>
