<svg width="160" height="160" viewBox="0 0 160 160" fill="none" xmlns="http://www.w3.org/2000/svg">
<rect width="160" height="160" rx="20" fill="#02558B"/>
<path fill-rule="evenodd" clip-rule="evenodd" d="M123.647 124.746C125.192 124.746 126.429 125.828 126.274 127.373C126.274 128.764 125.038 130 123.647 130H104.949C103.558 130 102.321 128.764 102.321 127.373C102.321 125.982 103.558 124.746 104.949 124.746H123.647ZM123.029 38.0528L123.956 38.6711C122.874 40.5255 121.329 42.0706 119.784 43.616C117.157 46.3975 114.53 49.1792 113.757 53.5061C115.766 55.3605 117.311 56.1332 117.311 56.1332C117.311 56.1332 115.766 55.9786 113.602 56.2877C113.602 58.6057 114.066 61.2328 115.148 64.478C114.839 64.6325 114.375 64.6326 114.066 64.6326C112.984 61.5419 112.521 58.9149 112.521 56.5969C111.439 56.7514 110.203 57.0604 108.966 57.524C104.639 59.2239 101.703 62.7782 102.012 72.0502C102.476 81.1676 98.9218 94.3029 83.0049 98.7844C80.6869 99.4025 78.5234 99.8661 76.36 100.175V110.374L92.895 110.683L104.176 109.447V104.193C104.176 103.266 104.949 102.648 105.721 102.648H123.029C123.802 102.648 124.574 103.266 124.883 104.039V121.346C124.883 122.273 124.111 122.891 123.338 122.891H106.03C105.103 122.891 104.485 122.119 104.485 121.346V116.092L93.204 114.856L37.7266 116.092V109.293L67.3969 109.911V100.175C63.8427 99.8661 60.2884 99.0934 57.0433 98.0117C51.3255 96.0028 45.1443 90.4395 39.7356 88.7396C42.6717 89.5123 49.7803 90.5941 54.8799 87.0398C61.3702 82.5584 61.5248 79.7769 66.4698 78.077C57.6614 77.3043 51.1711 71.8956 48.6985 59.9966C46.226 48.5611 44.5261 44.0797 39.7356 42.0707C46.6896 41.4526 56.8887 41.2981 68.6332 53.3517C77.5961 62.4691 86.5591 62.1601 93.8221 55.5152C101.085 48.7157 106.185 45.4703 110.048 49.9518C110.975 51.0335 111.902 51.9609 112.83 52.7336C113.757 48.2521 116.384 45.4705 119.011 42.8435C120.402 41.2981 121.947 39.9072 123.029 38.0528ZM33.5543 107.747C34.7905 107.747 35.7178 108.829 35.7178 110.374V115.01C35.7178 116.401 34.7905 117.637 33.5543 117.637H32.1635C30.9272 117.637 30 116.556 30 115.01V110.374C30 108.984 30.9272 107.747 32.1635 107.747H33.5543ZM73.5783 100.33C72.342 100.484 71.1057 100.484 69.8695 100.484V109.911L73.5783 110.065V100.33ZM123.647 95.3845C125.192 95.3845 126.429 96.6209 126.274 98.0117C126.274 99.4025 125.038 100.639 123.647 100.639H104.949C103.558 100.639 102.321 99.4025 102.321 98.0117C102.321 96.6209 103.558 95.3845 104.949 95.3845H123.647ZM121.61 47.1401L122.102 47.1702C124.574 47.4793 126.274 50.1064 126.274 50.1064C126.274 50.1064 123.956 52.2699 121.484 51.9609C119.011 51.6518 117.311 49.0247 117.311 49.0247C117.311 49.0247 119.629 46.8612 122.102 47.1702L121.61 47.1401ZM111.593 36.662C111.593 36.662 114.684 38.2074 115.302 40.989C115.92 43.7706 113.757 46.5521 113.757 46.5521C113.757 46.5521 110.666 45.0069 110.048 42.0707C109.43 39.4437 111.593 36.662 111.593 36.662ZM126.738 40.8344C129.365 40.6798 131.528 42.8435 131.528 42.8435C131.528 42.8435 129.674 45.4705 127.201 45.625C124.574 45.7796 122.411 43.616 122.411 43.616C122.411 43.616 124.265 40.9889 126.738 40.8344ZM117.157 30.7898C117.157 30.7898 120.247 32.3352 120.865 35.1168C121.484 37.8984 119.32 40.68 119.32 40.68C119.32 40.68 116.229 39.1346 115.611 36.353C114.993 33.5714 117.157 30.7898 117.157 30.7898ZM125.965 31.7169C127.974 29.708 131.683 30.0171 131.683 30.0171C131.683 30.0171 131.992 33.726 129.983 35.7349C127.819 37.7438 124.265 37.4347 124.265 37.4347C124.265 37.4347 123.956 33.7259 125.965 31.7169Z" fill="white"/>
</svg>
