<svg width="160" height="160" viewBox="0 0 160 160" fill="none" xmlns="http://www.w3.org/2000/svg">
<rect width="160" height="160" rx="20" fill="#48773E"/>
<path fill-rule="evenodd" clip-rule="evenodd" d="M139.497 79.8993C135.268 73.9597 115.94 50 80 50C44.0604 50 24.8322 73.859 20.5033 79.8993C20.302 80.2013 20.2013 80.4027 20 80.604C20.1007 80.8054 20.302 81.0068 20.5033 81.3088C24.7315 87.2484 44.0604 111.208 80 111.208C115.839 111.208 135.168 87.3491 139.497 81.3088C139.698 81.0068 139.799 80.8054 140 80.604C139.799 80.4027 139.698 80.1006 139.497 79.8993ZM59.9664 65.1007C60.2684 64.5974 61.3758 63.2885 61.4764 63.0872C61.7785 62.6845 62.2818 62.6845 62.6845 62.5838C63.0872 62.4831 63.5907 62.6846 63.5907 62.9867C63.6914 63.2887 63.4899 64.396 63.2886 64.5974C62.7852 65.1007 61.3759 65.9061 60.6712 65.8055C60.1678 65.7048 59.8658 65.3021 59.9664 65.1007ZM58.7583 67.6174C58.859 67.5167 58.859 67.5169 58.859 67.4162C59.2617 66.9128 60.1677 66.8121 60.8724 66.7114C61.4764 66.6108 62.2819 66.9128 62.3826 67.3155C62.4833 67.7182 60.8724 68.5234 60.4698 68.7248C59.5637 69.5301 58.2551 71.141 57.4497 71.3424C57.1477 71.443 56.9464 71.3423 56.8457 71.2417C57.3491 70.1343 58.0536 68.8254 58.7583 67.6174ZM72.1476 95.2014C71.6443 97.1142 71.141 97.8188 70.6376 98.4229C70.1343 99.0269 68.3221 99.8321 67.2148 99.7314C66.1074 99.6308 65.906 96.6108 65.906 95.1007C65.906 94.5974 65.1008 96.2081 64.6981 92.8859C64.3961 90.7719 63.0873 93.0872 62.9867 91.6779C62.886 90.2685 62.1811 90.5705 61.4764 89.6645C60.7717 88.7585 59.8658 89.7652 58.9598 90.1678C57.953 90.5705 58.3556 90.8724 57.0469 90.3691H56.9464C55.6377 87.3489 54.9329 84.1275 54.9329 80.604C54.9329 79.7987 54.9329 78.8925 55.0336 78.0872C55.0336 77.9865 55.1343 77.8859 55.235 77.8859C56.5437 76.2752 56.5436 75.9731 56.5436 75.9731L58.0536 75.4698C58.0536 75.4698 60.3691 75.8724 62.1812 76.4764C63.5906 76.9798 65.906 78.2886 67.2148 77.6845C68.2215 77.2818 68.9261 76.7785 68.8255 75.9731C68.7248 74.9664 67.9194 74.765 67.0133 75.3691C66.6107 75.5704 65.9059 73.8591 65.3019 73.9598C64.6979 74.0604 66.0067 76.0738 65.5033 76.0738C65 76.1745 63.9933 73.9596 63.7919 73.6576C63.5906 73.3556 62.8859 72.4496 62.1812 73.1543C60.6711 74.5637 58.3557 74.463 57.8524 74.8657C56.3423 75.9731 56.0402 74.463 56.0402 73.6576C56.1409 73.4563 56.141 73.2549 56.2417 73.0536C56.745 72.5502 58.4564 72.349 59.0605 72.7517C59.6645 73.1544 60.1678 72.6511 60.4698 72.349C60.7718 72.047 60.6711 71.6444 60.4698 71.3424C60.2684 71.0404 60.7718 70.7383 61.1745 70.6376C61.4765 70.5369 62.5838 69.7316 63.0872 69.5302C63.4898 69.2282 65.8055 69.0269 66.9128 69.5302C67.9196 70.0336 68.9262 69.6309 69.4295 69.0269C70.0336 68.2215 70.839 67.718 71.2417 67.5167C71.6443 67.3153 70.3355 66.2081 69.3288 67.4162C68.3221 68.7249 67.8188 68.8255 67.3155 68.8255C66.8121 68.8255 63.9934 68.1208 63.5907 67.2148C63.2887 66.3087 64.4967 65.6041 65.604 65.1007C66.7114 64.5974 69.6308 64.5973 70.3355 64.396C71.8456 64.0939 73.7583 63.2886 74.765 63.9933C75.7717 64.5974 70.7383 65.8054 72.349 66.7114C72.9531 67.0134 75.5704 65.2014 76.4764 64.6981C78.5905 63.5907 74.3624 63.1879 74.9664 60.9731C75.5705 58.4563 69.7316 59.3625 66.9128 59.6645C70.839 57.1477 75.3691 55.7383 80.4026 55.7383C92.1812 55.7383 102.047 63.8926 104.665 74.8657C104.665 75.3691 104.564 75.7718 104.564 75.9731C104.362 76.8791 102.651 77.6846 101.644 76.1745C101.342 75.7718 100.335 74.7651 100.335 76.5771C100.335 78.2886 102.047 78.49 100.436 79.4967C98.8255 80.5034 98.5235 80.302 97.8188 80.5033C97.1141 80.8053 96.4093 82.5168 96.51 83.5236C96.7113 84.4296 98.9262 87.0471 97.3155 86.9464C96.9128 86.9464 93.8926 84.8323 93.3893 83.5236C92.8859 82.1142 92.282 80.8055 91.8793 79.6981C91.4766 78.6914 90.3692 78.3893 89.5638 78.9933C88.6578 79.5974 89.7652 80.2013 89.1612 81.51C88.5571 82.8187 88.0537 83.9262 87.1476 82.9195C84.7315 80.1007 81.2081 81.5101 80.604 78.3893C80.302 76.6779 78.8926 76.8791 77.6845 75.8724C76.4765 74.9664 75.7718 74.3624 75.5705 75.0671C75.3691 75.6712 79.3961 78.8927 79.6981 79.6981C80.1008 80.9061 78.49 82.0134 77.2819 82.2148C76.0738 82.5168 75.5704 81.51 74.3624 80.3019C73.1543 79.0939 72.651 78.1878 72.651 79.1945C72.5503 80.6039 73.7584 82.6174 74.9664 83.3221C75.9731 83.9262 77.0806 84.2281 76.7786 85.3355C76.4766 86.3422 76.7786 85.7384 75.6712 86.9464C74.5638 88.0538 74.3624 88.4564 74.3624 89.9664C74.4631 91.5772 74.0604 91.5772 73.7583 92.8859C73.255 94.396 72.651 93.2887 72.1476 95.2014ZM99.0269 85.235C99.8323 85.1343 101.141 86.3423 100.638 86.745C100.134 87.1477 98.9261 87.0469 98.2214 86.5436C97.6174 86.0402 98.6242 85.235 99.0269 85.235ZM97.9195 84.4295C97.6175 84.3289 97.4161 84.0269 97.2148 83.4229C97.0134 82.8188 97.5169 82.4161 98.0202 82.7181C98.5236 83.0201 99.2281 83.7249 99.2281 84.1276C99.2281 84.631 98.2215 84.6309 97.9195 84.4295ZM86.8457 84.4295C86.3423 84.8322 85.1342 84.7315 84.4295 84.2281C83.8255 83.7248 84.8323 82.9195 85.235 82.9195C86.141 82.8188 87.3491 84.0268 86.8457 84.4295ZM76.6779 89.3624C76.3758 89.9664 75.369 94.0941 74.765 93.5907C74.161 93.0873 75.0672 88.7584 75.1678 88.3557C76.1746 86.6443 78.2886 86.7449 76.6779 89.3624ZM80.1007 105.671C77.6846 105.671 75.2684 105.269 73.0536 104.665C72.7516 104.362 72.5503 103.96 72.7517 103.456C73.557 101.443 75.8724 100.638 77.6845 100.436C81.7114 100.034 87.047 103.054 87.9531 102.55C88.7585 102.047 90.4699 99.8322 92.9866 99.9329C94.6981 100.034 94.6979 100.336 95.3019 100.537C91.0737 103.758 85.7383 105.671 80.1007 105.671ZM97.7181 98.4229C97.5168 98.3222 97.2149 98.2214 96.9128 98.1207C95.5034 97.416 95.7047 98.5235 95 98.3221C94.2953 98.1208 95.8053 96.5101 93.6912 97.8188C91.6778 99.1275 92.1813 97.6174 91.3759 95.4026C90.4699 93.1879 92.3826 90.6712 93.9933 90.0671C96.2081 89.2618 97.5168 89.1611 98.5236 88.859C101.544 88.1544 102.148 86.3424 102.752 87.4497L103.054 88.0536C103.255 88.3556 103.456 89.0605 103.456 89.6645C102.148 92.9867 100.235 95.9061 97.7181 98.4229ZM104.564 85.8388C103.859 85.6375 101.04 81.812 103.356 79.1945C103.758 78.7919 102.651 77.584 102.953 77.4833C104.161 77.3826 104.765 78.1878 105.168 79.1945V80.604C105.067 82.4161 104.866 84.1274 104.564 85.8388Z" fill="white"/>
</svg>
