<svg width="160" height="160" viewBox="0 0 160 160" fill="none" xmlns="http://www.w3.org/2000/svg">
<rect width="160" height="160" rx="20" fill="#FDB713"/>
<path fill-rule="evenodd" clip-rule="evenodd" d="M80.2193 140C81.8271 140 82.9964 138.683 82.9964 137.366V122.293C82.9964 120.976 81.681 119.659 80.2193 119.659C78.6115 119.659 77.4422 121.122 77.4422 122.293V137.366C77.4422 138.537 78.7577 140 80.2193 140ZM79.927 45.7561C60.9257 45.7561 45.4324 61.2683 45.4324 80.2927C45.4324 99.3171 60.9257 114.829 79.927 114.829C98.9282 114.829 114.421 99.3171 114.421 80.2927C114.421 61.1219 99.0743 45.7561 79.927 45.7561ZM77.4422 59.3658C77.4422 58.1951 78.6114 57.0244 80.073 57.0244C81.5347 57.0244 82.5578 58.3415 82.5578 59.3658V71.2195C82.5578 72.3902 81.3885 73.561 80.073 73.561C78.6114 73.561 77.4422 72.2439 77.4422 71.2195V59.3658ZM79.927 97.8537C69.9879 97.8537 61.9489 89.8048 61.9489 79.8536C61.9489 71.8048 67.2107 64.9269 74.5188 62.7317V69.4634C70.7186 71.3658 68.0878 75.317 68.0878 79.8536C68.0878 86.2926 73.3495 91.561 79.7807 91.561C86.2119 91.561 91.4738 86.2926 91.4738 79.8536C91.4738 75.317 88.843 71.3659 85.0427 69.3171V62.5853C92.3509 64.7805 97.6127 71.6586 97.6127 79.7073C97.905 89.8049 89.8661 97.8537 79.927 97.8537ZM40.4628 79.8536C40.4628 78.2439 39.1474 77.0732 37.8319 77.0732H22.6309C21.3155 77.0732 20 78.3902 20 79.8536C20 81.4634 21.4616 82.6342 22.6309 82.6342H37.6857C39.0012 82.7805 40.4628 81.4634 40.4628 79.8536ZM140 79.8536C140 78.2439 138.684 77.0732 137.369 77.0732H122.314C120.999 77.0732 119.683 78.3902 119.683 79.8536C119.683 81.4634 121.145 82.6342 122.314 82.6342H137.369C138.538 82.7805 140 81.4634 140 79.8536ZM79.927 40.3415C81.5348 40.3415 82.7041 39.0244 82.7041 37.7073V22.6342C82.7041 21.3171 81.3886 20 79.927 20C78.3192 20 77.1499 21.4634 77.1499 22.6342V37.5609C77.1499 38.878 78.4653 40.3415 79.927 40.3415ZM45.5786 60.2439C46.3094 58.9269 45.7247 57.0244 44.7015 56.439L31.5469 48.9756C30.3776 48.3903 28.6237 48.683 27.8929 50.1464C27.162 51.4635 27.7467 53.3658 28.7698 53.9512L41.9244 61.4146C42.9476 62 44.8478 61.561 45.5786 60.2439ZM132.107 109.707C132.838 108.39 132.253 106.488 131.23 105.902L118.076 98.439C116.906 97.8537 115.152 98.1464 114.421 99.6098C113.691 100.927 114.275 102.829 115.298 103.415L128.453 110.878C129.476 111.463 131.23 111.171 132.107 109.707ZM99.659 45.4635C100.974 46.1952 102.728 45.6098 103.459 44.5854L110.913 31.4146C111.498 30.2439 111.206 28.4879 109.744 27.7561C108.429 27.0244 106.529 27.6097 105.944 28.6341L98.4896 41.8049C97.9049 42.9756 98.3435 44.7318 99.659 45.4635ZM50.1097 132.098C51.4251 132.829 53.1791 132.244 53.9099 131.219L61.3641 118.049C61.9488 116.878 61.6565 115.122 60.1949 114.39C58.8794 113.659 56.9793 114.244 56.3947 115.268L48.9403 128.439C48.3557 129.463 48.7942 131.22 50.1097 132.098ZM60.1949 45.6097C61.5104 44.878 61.9488 42.9756 61.3641 41.9512L53.9099 28.7805C53.3253 27.6098 51.4251 27.0244 50.1097 27.9024C48.7942 28.6341 48.3557 30.5366 48.9403 31.7074L56.3947 44.878C57.1255 45.7561 58.8794 46.3414 60.1949 45.6097ZM109.89 131.951C111.206 131.219 111.644 129.317 111.06 128.293L103.605 115.122C103.021 113.951 101.121 113.366 99.8051 114.244C98.4896 114.976 98.0512 116.878 98.6359 118.049L106.09 131.219C106.675 132.244 108.575 132.829 109.89 131.951ZM114.275 60.0976C115.006 61.4146 116.906 61.8537 117.929 61.2683L131.084 53.8048C132.253 53.2195 132.838 51.3171 131.961 50C131.23 48.6829 129.33 48.2439 128.161 48.8292L115.006 56.2927C114.129 57.0244 113.544 58.7805 114.275 60.0976ZM28.0389 109.854C28.7698 111.171 30.6699 111.61 31.693 111.024L44.8477 103.561C46.017 102.976 46.6017 101.073 45.7247 99.7561C44.9939 98.439 43.0937 98 41.9244 98.5854L28.7698 106.049C27.7467 106.634 27.162 108.537 28.0389 109.854Z" fill="white"/>
</svg>
