<svg width="160" height="160" viewBox="0 0 160 160" fill="none" xmlns="http://www.w3.org/2000/svg">
<rect width="160" height="160" rx="20" fill="#279B48"/>
<path fill-rule="evenodd" clip-rule="evenodd" d="M116.021 34.5849L128.625 60.6584C129.119 61.7706 128.749 63.1298 127.513 63.7477C126.401 64.242 125.042 63.8713 124.424 62.6355L114.415 41.8756L89.4532 124.915C89.206 126.151 88.341 126.769 87.3524 126.769C86.1167 126.645 85.2517 125.904 85.1281 124.915L78.0845 83.6427L67.3339 103.538C66.8396 104.403 65.851 104.897 64.8624 104.65C63.8739 104.526 63.1326 103.661 63.009 102.673L58.4368 70.7913L50.1574 89.4505C49.7867 90.3155 48.9218 90.8098 48.0568 90.8098H15.6811C14.4454 90.8098 13.3333 89.8213 13.3333 88.462C13.3333 87.2263 14.3218 86.1141 15.6811 86.1141H46.5739L57.5717 61.5234C57.9424 60.5348 58.931 60.0406 59.9196 60.1641C60.9081 60.2877 61.7732 61.1527 61.8967 62.1413L66.5925 95.0112L77.2196 75.3634C77.7139 74.4984 78.5789 74.0041 79.5675 74.2512C80.556 74.3748 81.2975 75.1162 81.4211 76.1048L87.9702 114.288L111.82 34.9556C112.067 34.0906 112.932 33.3492 113.797 33.3492C114.785 33.2256 115.65 33.8434 116.021 34.5849ZM137.646 72.7684C143.083 72.7684 146.667 77.3405 146.667 82.9012C146.667 85.7434 145.554 88.2148 143.824 90.0684L129.861 104.032L115.897 90.0684C114.167 88.2148 113.055 85.7434 113.055 82.9012C113.055 77.3405 116.886 72.7684 122.323 72.7684C125.042 72.7684 128.131 75.7341 129.861 77.5877C131.591 75.7341 134.927 72.7684 137.646 72.7684Z" fill="white"/>
</svg>
