<svg width="160" height="160" viewBox="0 0 160 160" fill="none" xmlns="http://www.w3.org/2000/svg">
<rect width="160" height="160" rx="20" fill="#C31F33"/>
<path fill-rule="evenodd" clip-rule="evenodd" d="M110.064 45.0136L113.442 47.7384V107.902L110.281 108.883L75.2951 120H71.3714L33.3333 109.428V47.7384L36.712 45.0136V107.139L71.5895 116.839H75.077L110.064 105.504V45.0136ZM131.317 50.5722V102.888L127.611 115.858L123.906 102.888V50.5722H131.317ZM40.0907 45.1226L71.5895 63.3242V113.46L40.0907 103.978V45.1226ZM106.685 45.1226V103.869L74.9682 113.46V63.4332L106.685 45.1226ZM127.611 40C129.682 40 131.317 41.6349 131.317 43.7057V47.7384H123.906V43.7057C123.906 41.6349 125.54 40 127.611 40Z" fill="white"/>
</svg>
