<svg width="160" height="160" viewBox="0 0 160 160" fill="none" xmlns="http://www.w3.org/2000/svg">
<rect width="160" height="160" rx="20" fill="#F99D26"/>
<path fill-rule="evenodd" clip-rule="evenodd" d="M37.5174 99.4069H63.2515C63.5705 99.4069 63.8895 99.0879 63.8895 98.7689C63.8895 98.5562 63.7832 98.4498 63.6768 98.3435L50.9161 81.7545L50.8098 81.6483C50.7035 81.542 50.4907 81.4355 50.3844 81.4355C50.278 81.4355 50.0654 81.542 49.9591 81.6483L49.8528 81.7545L49.7464 81.861L37.1983 98.2373L36.9856 98.4499C36.8793 98.5562 36.8793 98.6626 36.8793 98.7689C36.8793 99.0879 37.1983 99.4069 37.5174 99.4069ZM63.1452 101.746H37.3046C36.9856 101.746 36.6666 102.065 36.6666 102.384V122.589C36.6666 122.908 36.9856 123.227 37.3046 123.227H45.5991V110.572C45.5991 110.253 45.9181 109.934 46.2371 109.934H53.8936C54.2126 109.934 54.5316 110.253 54.5316 110.572V123.227H63.0388C63.3578 123.227 63.6768 122.908 63.6768 122.589V102.384C63.7832 102.065 63.5706 101.746 63.1452 101.746ZM92.9202 36.6667H68.0368C67.7177 36.6667 67.3987 36.9857 67.3987 37.3047V122.695C67.3987 123.014 67.7177 123.333 68.0368 123.333H93.0266C93.3456 123.333 93.6646 123.014 93.6646 122.695V37.3047C93.5583 36.8793 93.3455 36.6667 92.9202 36.6667ZM78.139 113.55C78.139 113.763 78.0327 113.869 77.82 113.869H72.0777C71.865 113.869 71.7587 113.763 71.7587 113.55V107.17C71.7587 106.957 71.865 106.851 72.0777 106.851H77.82C78.0327 106.851 78.139 106.957 78.139 107.17V113.55ZM78.139 98.8753C78.139 99.088 78.0327 99.1943 77.82 99.1943H72.0777C71.865 99.1943 71.7587 99.088 71.7587 98.8753V92.4949C71.7587 92.2822 71.865 92.1759 72.0777 92.1759H77.82C78.0327 92.1759 78.139 92.2822 78.139 92.4949V98.8753ZM78.139 84.2004C78.139 84.4131 78.0327 84.5194 77.82 84.5194H72.0777C71.865 84.5194 71.7587 84.4131 71.7587 84.2004V77.82C71.7587 77.6073 71.865 77.501 72.0777 77.501H77.82C78.0327 77.501 78.139 77.6073 78.139 77.82V84.2004ZM78.139 69.6319C78.139 69.8446 78.0327 69.951 77.82 69.951H72.0777C71.865 69.951 71.7587 69.8446 71.7587 69.6319V63.2515C71.7587 63.0389 71.865 62.9325 72.0777 62.9325H77.82C78.0327 62.9325 78.139 63.0389 78.139 63.2515V69.6319ZM78.139 54.9571C78.139 55.1697 78.0327 55.2761 77.82 55.2761H72.0777C71.865 55.2761 71.7587 55.1697 71.7587 54.9571V48.5766C71.7587 48.364 71.865 48.2576 72.0777 48.2576H77.82C78.0327 48.2576 78.139 48.364 78.139 48.5766V54.9571ZM89.3047 113.55C89.3047 113.763 89.1983 113.869 88.9857 113.869H83.2433C83.0306 113.869 82.9243 113.763 82.9243 113.55V107.17C82.9243 106.957 83.0306 106.851 83.2433 106.851H88.9857C89.1983 106.851 89.3047 106.957 89.3047 107.17V113.55ZM89.3047 98.8753C89.3047 99.088 89.1983 99.1943 88.9857 99.1943H83.2433C83.0306 99.1943 82.9243 99.088 82.9243 98.8753V92.4949C82.9243 92.2822 83.0306 92.1759 83.2433 92.1759H88.9857C89.1983 92.1759 89.3047 92.2822 89.3047 92.4949V98.8753ZM89.3047 84.2004C89.3047 84.4131 89.1983 84.5194 88.9857 84.5194H83.2433C83.0306 84.5194 82.9243 84.4131 82.9243 84.2004V77.82C82.9243 77.6073 83.0306 77.501 83.2433 77.501H88.9857C89.1983 77.501 89.3047 77.6073 89.3047 77.82V84.2004ZM89.3047 69.6319C89.3047 69.8446 89.1983 69.951 88.9857 69.951H83.2433C83.0306 69.951 82.9243 69.8446 82.9243 69.6319V63.2515C82.9243 63.0389 83.0306 62.9325 83.2433 62.9325H88.9857C89.1983 62.9325 89.3047 63.0389 89.3047 63.2515V69.6319ZM89.3047 54.9571C89.3047 55.1697 89.1983 55.2761 88.9857 55.2761H83.2433C83.0306 55.2761 82.9243 55.1697 82.9243 54.9571V48.5766C82.9243 48.364 83.0306 48.2576 83.2433 48.2576H88.9857C89.1983 48.2576 89.3047 48.364 89.3047 48.5766V54.9571ZM123.121 52.724C123.014 52.405 122.802 52.2986 122.483 52.2986C122.376 52.2986 122.27 52.2986 122.164 52.405L121.951 52.6176L97.3864 83.775L97.2801 83.8814C97.1738 83.9878 97.0674 84.2004 97.0674 84.413V122.695C97.0674 123.014 97.3864 123.333 97.7054 123.333H122.695C123.014 123.333 123.333 123.014 123.333 122.695V52.9366C123.227 52.9366 123.227 52.8303 123.121 52.724ZM112.806 69.6319L113.018 69.4191C114.72 67.2923 117.485 63.7831 118.867 62.0817L119.08 61.8691C119.186 61.7627 119.399 61.6565 119.611 61.6565C119.93 61.6565 120.249 61.8691 120.249 62.1881V70.0572C120.249 70.4825 119.93 70.6952 119.611 70.8016H113.444C113.018 70.8016 112.806 70.4825 112.806 70.0572C112.699 69.9508 112.699 69.7383 112.806 69.6319ZM108.871 113.231C108.871 113.55 108.552 113.869 108.233 113.869H100.789C100.47 113.869 100.151 113.55 100.151 113.231V108.552C100.151 108.233 100.47 107.914 100.789 107.914H108.233C108.552 107.914 108.871 108.233 108.871 108.552V113.231ZM108.871 104.724C108.871 105.043 108.552 105.362 108.233 105.362H100.789C100.47 105.362 100.151 105.043 100.151 104.724V100.045C100.151 99.7259 100.47 99.4069 100.789 99.4069H108.233C108.552 99.4069 108.871 99.7259 108.871 100.045V104.724ZM108.871 96.1104C108.871 96.4294 108.552 96.7484 108.233 96.7484H100.789C100.47 96.7484 100.151 96.4294 100.151 96.1104V91.4315C100.151 91.1124 100.47 90.7934 100.789 90.7934H108.233C108.552 90.7934 108.871 91.1124 108.871 91.4315V96.1104ZM108.977 77.182V87.3905C108.977 87.7095 108.658 88.0286 108.339 88.0286H100.896C100.577 88.0286 100.258 87.7095 100.258 87.3905V86.1145V85.9019V85.7955C100.258 85.7955 100.258 85.6891 100.364 85.6891C100.364 85.6891 100.364 85.5829 100.47 85.5829C101.427 84.2005 105.681 78.8834 107.489 76.7566L107.701 76.544C107.808 76.4376 108.02 76.3314 108.233 76.3314C108.552 76.3314 108.871 76.544 108.871 76.863V77.182H108.977ZM120.356 113.231C120.356 113.55 120.037 113.869 119.718 113.869H112.274C111.955 113.869 111.636 113.55 111.636 113.231V108.552C111.636 108.233 111.955 107.914 112.274 107.914H119.718C120.037 107.914 120.356 108.233 120.356 108.552V113.231ZM120.356 104.724C120.356 105.043 120.037 105.362 119.718 105.362H112.274C111.955 105.362 111.636 105.043 111.636 104.724V100.045C111.636 99.7259 111.955 99.4069 112.274 99.4069H119.718C120.037 99.4069 120.356 99.7259 120.356 100.045V104.724ZM120.356 96.1104C120.356 96.4294 120.037 96.7484 119.718 96.7484H112.274C111.955 96.7484 111.636 96.4294 111.636 96.1104V91.4315C111.636 91.1124 111.955 90.7934 112.274 90.7934H119.718C120.037 90.7934 120.356 91.1124 120.356 91.4315V96.1104ZM120.356 87.4969C120.356 87.816 120.037 88.135 119.718 88.135H112.274C111.955 88.135 111.636 87.816 111.636 87.4969V82.818C111.636 82.499 111.955 82.18 112.274 82.18H119.718C120.037 82.18 120.356 82.499 120.356 82.818V87.4969ZM120.356 78.8835C120.356 79.2025 120.037 79.5215 119.718 79.5215H112.274C111.955 79.5215 111.636 79.2025 111.636 78.8835V74.2045C111.636 73.8855 111.955 73.5665 112.274 73.5665H119.718C120.037 73.5665 120.356 73.8855 120.356 74.2045V78.8835Z" fill="white"/>
</svg>
