<svg width="160" height="160" viewBox="0 0 160 160" fill="none" xmlns="http://www.w3.org/2000/svg">
<rect width="160" height="160" rx="20" fill="#5DBB46"/>
<path fill-rule="evenodd" clip-rule="evenodd" d="M65.0859 87.4571C65.3265 87.4571 65.5669 87.6977 65.5669 87.9382V102.01C65.5669 102.251 65.3265 102.491 65.0859 102.491H59.4332C59.1927 102.491 58.9519 102.251 58.9519 102.01V87.9382C58.9519 87.6977 59.1927 87.4571 59.4332 87.4571H65.0859ZM127.749 108.505H33.8143C33.5738 108.505 33.3334 108.746 33.3334 108.986V114.76C33.3334 115 33.5738 115.24 33.8143 115.24H127.749C127.99 115.24 128.23 115 128.23 114.76V108.986C128.23 108.746 127.99 108.505 127.749 108.505ZM127.749 119.931H33.8143C33.5738 119.931 33.3334 120.172 33.3334 120.412V126.186C33.3334 126.426 33.5738 126.667 33.8143 126.667H127.749C127.99 126.667 128.23 126.426 128.23 126.186V120.412C128.23 120.172 127.99 119.931 127.749 119.931ZM109.828 71.9415C108.626 70.9793 105.498 68.9347 101.65 68.9347C98.8833 68.9347 96.3575 70.0173 94.0723 72.1822C93.952 72.3025 93.8318 72.5429 93.8318 72.7834V73.2646C93.8318 73.5051 93.952 73.7457 94.0723 73.866C94.3128 73.9862 94.4329 74.1065 94.7937 73.9862H94.9142C95.0345 73.8659 95.2748 73.866 95.3951 73.7457C95.8762 73.3849 97.1992 72.9039 99.1236 72.9039C101.168 72.9039 105.017 73.385 108.866 76.9932L108.986 77.1134C109.227 77.354 109.468 77.4742 109.828 77.4742C110.069 77.4742 110.43 77.354 110.67 77.1134L110.79 76.9932C114.639 73.5052 118.488 72.9039 120.533 72.9039C122.457 72.9039 123.78 73.3849 124.261 73.7457C124.381 73.866 124.502 73.9862 124.742 74.1064C124.863 74.1064 125.103 74.2267 125.344 74.1064C125.705 73.9862 125.945 73.7456 125.945 73.3848V72.9039C125.945 72.6633 125.825 72.4227 125.704 72.3024C123.419 70.1375 120.894 69.055 118.007 69.055C114.158 68.8144 111.031 70.9793 109.828 71.9415ZM104.055 34.4159C103.814 34.5362 103.694 34.6563 103.694 34.8968L103.574 35.2578C103.454 35.4983 103.574 35.7389 103.694 35.9794C103.815 36.22 104.055 36.3401 104.296 36.3401H104.416C104.536 36.3401 104.777 36.3402 104.897 36.2199C105.017 36.2199 105.138 36.0996 105.498 36.0996C105.859 36.0996 109.708 36.2199 112.234 40.4295V40.5499C112.354 40.7905 112.594 40.9106 112.835 41.0309H113.076C113.196 41.0309 113.437 41.0309 113.557 40.9106H113.677C115 40.189 116.443 39.8281 117.887 39.8281C120.292 39.8281 121.856 40.7903 122.216 41.1511L122.577 41.512C122.698 41.512 122.818 41.6323 122.938 41.6323H123.179C123.299 41.6323 123.419 41.6323 123.54 41.512C123.78 41.3918 123.9 41.2714 123.9 41.0309L124.021 40.7904V40.5499C124.021 40.4297 124.02 40.3093 123.9 40.189C122.096 37.0619 119.45 36.3401 117.526 36.3401C116.082 36.3401 114.88 36.701 114.158 36.9415C113.316 35.7388 111.151 33.3333 107.784 33.3333C106.461 33.5739 105.258 33.8145 104.055 34.4159ZM84.2098 48.9691V49.4501C84.2098 49.6906 84.3298 49.9312 84.5704 50.0515C84.8109 50.1717 85.0515 50.1719 85.1718 50.1719H85.2922C85.4125 50.0516 85.5328 50.0515 85.6531 49.9312C86.0139 49.6907 87.3367 49.0894 89.2611 49.0894C91.0652 49.0894 93.8318 49.5704 96.7184 51.8557L96.8384 51.9759C97.079 52.0962 97.3197 52.2166 97.5603 52.2166H97.6803C97.9209 52.2166 98.2819 52.0962 98.4021 51.8557L98.5222 51.7354C101.649 48.3677 105.017 47.8866 106.821 47.8866C108.024 47.8866 108.986 48.1272 109.227 48.3677C109.347 48.488 109.467 48.6082 109.708 48.6082H110.309C110.67 48.4879 110.911 48.1271 110.79 47.7663V47.4054C110.79 47.1648 110.67 47.0447 110.55 46.8042C108.625 45.2406 106.701 44.3986 104.536 44.3986C101.289 44.3986 98.6427 46.323 97.5603 47.2852C96.5981 46.5635 94.1924 45.2405 91.3058 45.2405C88.78 45.2405 86.6152 46.323 84.6908 48.3677C84.2097 48.488 84.2098 48.7286 84.2098 48.9691ZM36.5809 56.4262C36.5809 50.7733 41.1513 46.2028 46.8042 46.2028H47.4056C47.8867 39.1066 53.9005 33.4536 61.117 33.4536C68.6943 33.4536 74.9484 39.5876 74.9484 47.2852C74.9484 49.4501 74.4673 51.4948 73.5051 53.299C80.3608 54.8625 85.5327 60.9966 85.5327 68.3333C85.5327 76.8729 78.6771 83.7284 70.1376 83.7284C69.5362 83.7284 49.5704 83.6082 49.5704 83.6082C43.5566 83.6082 38.6255 78.6769 38.6255 72.6632C38.6255 69.7766 39.7081 67.1305 41.6325 65.2061C38.7459 63.5222 36.5809 60.275 36.5809 56.4262Z" fill="white"/>
</svg>
