<svg width="160" height="160" viewBox="0 0 160 160" fill="none" xmlns="http://www.w3.org/2000/svg">
<rect width="160" height="160" rx="20" fill="#EF402B"/>
<path fill-rule="evenodd" clip-rule="evenodd" d="M115.416 33.3333C115.525 33.3333 115.742 33.4421 115.742 33.6597V55.4157C115.742 55.6333 115.525 55.742 115.416 55.742H108.236C108.019 55.742 107.91 55.5245 107.91 55.4157V47.366L98.4461 56.8298C101.71 61.5074 103.667 67.1639 103.667 73.2556C103.667 87.397 93.3334 99.1453 79.8446 101.321V109.806H88.4384C88.656 109.806 88.7647 110.023 88.7647 110.132V117.855C88.7647 118.073 88.5472 118.182 88.4384 118.182H79.8446V126.34C79.8446 126.558 79.6271 126.667 79.5183 126.667H71.7949C71.5774 126.667 71.4686 126.449 71.4686 126.34V118.182H62.8748C62.6573 118.182 62.5485 117.964 62.5485 117.855V110.132C62.5485 109.915 62.7661 109.806 62.8748 109.806H71.4686V101.43C57.5447 99.5805 46.6667 87.6146 46.6667 73.1469C46.6667 57.4825 59.503 44.6465 75.1673 44.6465C81.8029 44.6465 87.8943 46.9309 92.7894 50.7382L102.362 41.1655H93.6598C93.4422 41.1655 93.3334 40.948 93.3334 40.8392V33.6597C93.3334 33.4421 93.551 33.3333 93.6598 33.3333H115.416ZM75.1673 52.1523C63.5279 52.1523 54.1724 61.6162 54.1724 73.1469C54.1724 84.6776 63.6366 94.1414 75.1673 94.1414C86.698 94.1414 96.1618 84.6776 96.1618 73.1469C96.1618 61.5074 86.698 52.1523 75.1673 52.1523ZM88.1121 75.54C88.3296 75.54 88.4383 75.6488 88.547 75.7576V81.9581C88.547 82.0669 88.3295 82.1756 88.2207 82.1756H62.7662C62.5486 82.1756 62.4399 82.0669 62.4399 81.9581V75.7576C62.4399 75.6488 62.6574 75.54 62.7662 75.54H88.1121ZM88.1121 64.5532C88.3296 64.5532 88.4383 64.662 88.547 64.7708V70.9713C88.547 71.0801 88.3295 71.1888 88.2207 71.1888H62.7662C62.5486 71.1888 62.4399 71.0801 62.4399 70.9713V64.7708C62.4399 64.662 62.6574 64.5532 62.7662 64.5532H88.1121Z" fill="white"/>
</svg>
