<svg width="160" height="160" viewBox="0 0 160 160" fill="none" xmlns="http://www.w3.org/2000/svg">
<rect width="160" height="160" rx="20" fill="#EB1C2D"/>
<path fill-rule="evenodd" clip-rule="evenodd" d="M111.721 54.9209C115.504 54.9209 118.628 51.7963 118.628 48.0139C118.628 44.2315 115.504 41.1069 111.721 41.1069C107.939 41.1069 104.814 44.2315 104.814 48.0139C104.814 51.7963 107.939 54.9209 111.721 54.9209ZM125.7 63.6369C125.7 63.6369 123.726 58.21 119.121 58.21H104.321C99.7161 58.21 97.7427 63.6369 97.7427 63.6369L91.9868 82.3845C91.9868 82.3845 91.8224 82.8779 91.8224 83.5357C91.4935 83.0423 90.8356 82.7135 90.1778 82.7135C89.3555 82.7135 88.6977 83.0424 88.3688 83.7002C88.2044 83.8646 85.5732 88.6338 84.5865 89.456C83.5998 90.4427 82.7775 90.2783 82.7775 90.2783H75.8705C75.8705 90.2783 75.0482 90.4427 74.0615 89.456C73.2392 88.6338 70.4435 83.7002 70.279 83.7002C69.9501 83.0424 69.2923 82.7135 68.47 82.7135C67.8122 82.7135 67.1545 83.0424 66.8256 83.7002V63.9659C66.8256 58.8678 62.8786 54.7565 57.945 54.2631H40.842C35.9084 54.7565 31.9616 58.8678 31.9616 63.9659V84.1936C31.9616 85.3447 32.6193 86.167 33.4416 86.6603C33.4416 86.6603 33.2772 86.8248 33.2772 86.9892L26.699 121.524C26.5346 122.182 27.0279 122.676 27.5213 122.84H27.6857C28.1791 122.84 28.6725 122.511 28.6725 122.018L35.2505 87.4826V87.1537C36.5662 86.8248 37.3885 85.6736 37.3885 84.358V66.926C37.3885 66.2682 37.5529 65.4459 38.7041 65.4459C39.5264 65.4459 39.6907 66.2682 39.6907 66.926V119.222C39.6907 121.524 41.4997 123.333 43.8021 123.333C46.1044 123.333 47.9134 121.524 47.9134 119.222V88.7982C47.9134 88.4693 48.0779 87.647 49.0646 87.647C50.0513 87.647 50.2158 88.4693 50.2158 88.7982V118.893C50.2158 121.195 52.0247 123.004 54.3271 123.004C56.6294 123.004 58.4384 121.195 58.4384 118.893V66.5971C58.4384 66.1037 58.6029 65.117 59.4251 65.117C60.5763 65.117 60.7408 65.9393 60.7408 66.5971V84.0291C60.7408 85.5091 62.0564 86.8248 63.5365 86.8248C64.6876 86.8248 65.6743 86.167 66.1677 85.1802C66.1677 85.3447 66.3322 85.5092 66.3322 85.5092L72.088 96.0341C72.088 96.0341 72.4169 96.692 72.4169 97.3498V99.4876L69.2923 110.835H72.4169V120.044C72.4169 121.689 73.7325 122.84 75.2126 122.84C76.8571 122.84 78.0083 121.524 78.0083 120.044V111.164V110.835H79.6528V120.044C79.6528 121.689 80.9684 122.84 82.4485 122.84C84.0931 122.84 85.2442 121.524 85.2442 120.044V110.835H88.3688L85.2442 99.4876V97.5142C85.2442 96.8564 85.5731 96.1986 85.5731 96.1986L91.0001 86.4959C91.0001 86.4959 91.329 85.8381 91.4934 85.1802C91.8223 85.8381 92.3158 86.3314 93.138 86.6603C96.0982 87.4826 96.9204 84.1936 96.9204 84.1936L101.525 68.5705C101.525 68.5705 101.854 67.4194 102.676 67.5838C103.663 67.9127 103.17 69.0639 103.17 69.0639L95.1114 98.5009H102.676V119.551C102.676 121.524 104.321 123.169 106.294 123.169C108.268 123.169 109.912 121.524 109.912 119.551V98.5009H111.886V119.551C111.886 121.524 113.53 123.169 115.504 123.169C117.477 123.169 119.121 121.524 119.121 119.551V98.5009H126.686L118.628 69.0639C118.628 69.0639 118.299 67.7483 119.121 67.5838C120.108 67.2549 120.273 68.5705 120.273 68.5705L124.877 84.1936C124.877 84.1936 125.7 87.4826 128.66 86.6603C131.62 85.8381 130.633 82.3845 130.633 82.3845L125.7 63.6369ZM79.3239 75.1486C82.4485 75.1486 85.0797 77.7799 85.0797 80.9045C85.0797 84.0291 82.4485 86.6603 79.3239 86.6603C76.1993 86.6603 73.5681 84.1935 73.5681 80.9045C73.5681 77.7799 76.1993 75.1486 79.3239 75.1486ZM49.3935 36.6667C53.5048 36.6667 56.7939 39.9557 56.7939 44.067C56.7939 48.1783 53.5048 51.4674 49.3935 51.4674C45.4466 51.4674 42.1576 48.1783 42.1576 44.067C42.1576 39.9557 45.2822 36.6667 49.3935 36.6667Z" fill="white"/>
</svg>
