<svg width="160" height="160" viewBox="0 0 160 160" fill="none" xmlns="http://www.w3.org/2000/svg">
<rect width="160" height="160" rx="20" fill="#183668"/>
<path fill-rule="evenodd" clip-rule="evenodd" d="M135.789 74.271C135.789 58.8576 123.512 46.3085 108.235 45.7629C104.28 34.7143 93.6402 26.6667 81.2276 26.6667C68.815 26.6667 58.1756 34.5779 54.2199 45.7629C38.9429 46.3085 26.6666 58.8576 26.6666 74.271C26.6666 83.41 31.0315 91.5942 37.7152 96.7775C37.0332 99.2328 36.6239 101.961 36.6239 104.689C36.6239 120.512 49.4458 133.333 65.2685 133.333C71.2702 133.333 76.8626 131.424 81.3639 128.287C85.8652 131.287 91.3213 133.06 97.1866 133.06C113.009 133.06 125.831 120.239 125.831 104.416C125.831 101.688 125.422 99.0963 124.74 96.641C131.56 91.5941 135.789 83.41 135.789 74.271ZM104.143 55.3111C104.143 66.7689 95.6862 76.1807 84.6376 77.8176C84.5012 76.7264 84.3648 75.4986 84.3648 74.271C84.3648 62.8132 92.8218 53.4015 103.87 51.7647C104.007 52.8559 104.143 54.0834 104.143 55.3111ZM81.5004 120.921C77.2719 116.829 74.5438 110.963 74.5438 104.552C74.5438 98.2779 77.1355 92.549 81.2276 88.3205C85.4561 92.4126 88.1842 98.278 88.1842 104.689C88.1842 111.1 85.5925 116.829 81.5004 120.921ZM58.8576 51.7647C69.9062 53.4015 78.3632 62.8132 78.3632 74.271C78.3632 75.4986 78.2268 76.59 78.0904 77.8176C67.0418 76.1807 58.5848 66.7689 58.5848 55.3111C58.5848 54.0834 58.5848 52.8559 58.8576 51.7647ZM75.908 84.5013C72.0887 92.0035 64.45 97.1867 55.5839 97.1867C51.7646 97.1867 48.2182 96.2319 45.0809 94.5951C48.9002 87.093 56.5388 81.9096 65.5413 81.9096C69.0878 81.9096 72.7707 82.8645 75.908 84.5013ZM86.82 84.3648C89.9573 82.728 93.5039 81.7733 97.3232 81.7733C106.326 81.7733 114.101 86.9566 117.783 94.5951C114.646 96.2319 110.963 97.1867 107.28 97.1867C98.2779 97.1867 90.5029 92.0033 86.82 84.3648ZM81.3639 32.3956C90.7757 32.3956 98.8236 37.9881 102.234 46.1723C92.9583 47.8091 85.1832 53.9471 81.3639 62.2676C77.5446 53.9471 69.7697 47.8091 60.4943 46.1723C63.9044 38.1245 71.9521 32.3956 81.3639 32.3956ZM32.6683 74.271C32.6683 62.5404 41.6709 52.8558 52.9923 51.6282C52.8559 52.8558 52.7195 54.0834 52.7195 55.3111C52.7195 63.6316 56.2659 71.1337 61.9948 76.4534C52.4466 77.5447 44.399 83.2737 40.0341 91.3214C35.5329 87.0929 32.6683 81.0911 32.6683 74.271ZM42.4894 104.825C42.4894 103.188 42.6256 101.688 43.0348 100.051C46.8541 101.824 50.9463 102.916 55.4476 102.916C60.4944 102.916 65.1321 101.688 69.2242 99.3691C68.9514 101.006 68.6786 102.779 68.6786 104.689C68.6786 112.464 71.8158 119.42 76.7262 124.604C73.3162 126.65 69.3606 127.741 65.2685 127.741C52.7195 127.604 42.4894 117.374 42.4894 104.825ZM120.239 104.552C120.239 117.101 110.008 127.332 97.4595 127.332C93.3674 127.332 89.5481 126.24 86.1381 124.331C91.0486 119.148 94.0494 112.327 94.0494 104.689C94.0494 102.779 93.913 101.006 93.5038 99.2328C97.5959 101.552 102.37 102.779 107.417 102.779C111.918 102.779 116.147 101.688 119.829 99.9147C119.966 101.552 120.239 103.052 120.239 104.552ZM100.733 76.1808C106.326 70.9975 109.872 63.4953 109.872 55.1748C109.872 53.9471 109.736 52.7195 109.599 51.4919C121.057 52.7195 129.923 62.4041 129.923 74.1347C129.923 80.8184 127.059 86.8201 122.421 91.0486C118.329 83.1372 110.281 77.4084 100.733 76.1808Z" fill="white"/>
</svg>
