<svg width="160" height="160" viewBox="0 0 160 160" fill="none" xmlns="http://www.w3.org/2000/svg">
<rect width="160" height="160" rx="20" fill="#D3A029"/>
<path fill-rule="evenodd" clip-rule="evenodd" d="M65.4082 116.22V118.92C65.4082 119.568 65.9482 120 66.4882 120H95.1071C95.7551 120 96.187 119.46 96.187 118.812V116.004C112.279 110.712 124.374 97.6448 127.074 81.6613V81.5533V81.4453C127.074 80.7973 126.534 80.2573 125.886 80.2573H34.5212C33.8732 80.2573 33.3333 80.7973 33.3333 81.4453L33.4413 81.9853C36.5732 97.9687 48.9928 111.144 65.4082 116.22ZM96.4031 41.1627C96.0791 41.7027 87.2235 54.4462 96.6192 64.7059C100.939 69.4577 100.507 73.5616 99.319 76.3695H105.367C106.555 72.2656 106.123 66.9738 101.155 61.682C94.2431 54.1222 101.263 43.8626 101.371 43.7546C102.235 42.5666 101.803 41.0546 100.399 40.4067C98.9951 39.6507 97.2671 39.9747 96.4031 41.1627ZM81.1757 76.3695H87.2234C88.4114 72.2656 87.9794 66.9738 83.0116 61.682C76.0998 54.1222 83.1197 43.8626 83.2277 43.7546C84.0916 42.5666 83.6595 41.0546 82.2556 40.4067C80.8516 39.7587 79.1238 40.0827 78.2598 41.2707C77.8278 41.8106 69.08 54.5542 78.4757 64.8139C82.7955 69.4577 82.3636 73.5616 81.1757 76.3695ZM60.0083 41.1627C59.5763 41.7027 50.8286 54.4462 60.2243 64.7059C64.5442 69.4577 64.1123 73.5616 62.9243 76.3695H68.9721C70.16 72.2656 69.7281 66.9738 64.7603 61.682C57.8485 54.1222 64.8681 43.8626 64.9761 43.7546C65.8401 42.5666 65.4082 41.0546 64.0042 40.4067C62.7083 39.6507 60.8722 39.9747 60.0083 41.1627Z" fill="white"/>
</svg>
