<svg width="160" height="160" viewBox="0 0 160 160" fill="none" xmlns="http://www.w3.org/2000/svg">
<rect width="160" height="160" rx="20" fill="#8F1838"/>
<path fill-rule="evenodd" clip-rule="evenodd" d="M88.9683 81.5344C90.1323 80.2646 90.5556 81.217 90.5556 81.9577V122.381C90.5556 122.91 90.1324 123.333 89.6033 123.333H71.7196C71.1905 123.333 70.7672 122.91 70.7672 122.381V82.5926C70.7672 82.0635 71.0847 80.8994 72.4604 82.2751L80.0794 90C80.1852 90.1058 80.3969 90.1058 80.6085 90L88.9683 81.5344ZM113.73 57.1957C114.894 56.0317 115.317 56.9841 115.212 57.619V122.275C115.212 122.804 114.788 123.228 114.259 123.228H96.3758C95.8466 123.228 95.4234 122.804 95.4234 122.275V76.1376C95.4234 74.8678 95.7408 74.3386 96.3758 73.7037L113.73 57.1957ZM63.889 78.5715C65.053 77.5133 65.4761 78.4657 65.3703 78.9948V122.169C65.3703 122.698 64.9471 123.122 64.4179 123.122H46.5344C46.0053 123.122 45.5821 122.698 45.5821 122.169V97.5132C45.5821 96.2434 45.8995 95.7143 46.5344 95.0793L63.889 78.5715ZM121.243 36.6667C121.349 36.6667 121.455 36.6666 121.561 36.7725C121.667 36.8783 121.667 37.0899 121.667 37.1957L121.878 37.4074L118.915 50.9524C118.915 51.0582 118.915 51.164 118.81 51.2698C118.598 51.4815 118.281 51.4815 118.069 51.2698L114.894 48.0952L80.8201 82.1693C80.7143 82.2751 80.3968 82.2751 80.291 82.1693L76.4815 78.3598L66.4287 68.3069L44.4179 90.2117C44.3121 90.3175 43.9948 90.3175 43.889 90.2117L40.0794 86.4021C39.9735 86.2963 39.9735 85.9788 40.0794 85.873L62.3017 63.6508L66.1111 59.8413C66.2169 59.7355 66.5344 59.7355 66.6402 59.8413L80.5027 73.7037L110.556 43.6508L107.487 40.582L107.381 40.4762C107.169 40.2645 107.169 39.9471 107.381 39.7354C107.381 39.7354 107.487 39.6296 107.593 39.6296H107.804L121.032 36.6667H121.243Z" fill="white"/>
</svg>
