<svg width="160" height="160" viewBox="0 0 160 160" fill="none" xmlns="http://www.w3.org/2000/svg">
<rect width="160" height="160" rx="20" fill="#CF8D2A"/>
<path fill-rule="evenodd" clip-rule="evenodd" d="M132.55 56.8842C124.824 50.918 115.694 50.3442 112.065 50.3442C110.193 50.3442 108.437 50.459 107.149 50.8032L106.681 50.918C101.765 52.0653 93.6881 53.9009 84.2067 65.4891L83.9725 65.8333C83.8555 66.0628 83.7384 66.2923 83.7384 66.5218C83.7384 66.7513 83.7385 66.9806 83.8555 67.0953L84.0895 67.4396C85.6112 69.9637 86.8989 72.2585 87.9524 74.0942C88.3036 74.7826 89.3569 75.0121 89.9422 74.3237C90.0592 74.209 90.0593 74.0942 90.1763 74.0942C98.3701 62.965 104.808 61.4735 109.022 60.5556L109.49 60.4409C110.076 60.3261 111.012 60.2114 112.065 60.2114C114.055 60.2114 120.845 60.5556 126.229 64.6861C131.028 68.3576 133.369 74.209 133.369 82.1256C133.369 95.4348 126.814 100.598 121.313 102.548C119.206 103.351 116.982 103.696 114.641 103.696C109.022 103.696 104.574 101.516 104.574 101.401L104.223 101.171C99.5406 99.1063 92.4004 94.9759 85.7283 81.7814C72.033 54.8189 60.5617 52.2947 52.9532 50.5737L52.6021 50.459C52.0168 50.3443 50.3781 50 47.6859 50C43.2379 50 34.81 50.8032 27.5527 56.5399C22.6364 60.4409 16.6666 68.0133 16.6666 81.7814C16.6666 90.2718 18.4224 95.779 22.9875 101.63C23.8069 102.778 31.7666 112.76 46.9836 112.76C49.2076 112.76 51.5487 112.53 53.8897 112.071C56.699 111.498 60.913 110.235 65.7122 106.793L69.6919 110.35C70.1602 110.694 70.8625 110.695 71.3307 110.236C71.5648 110.006 71.682 109.777 71.5649 109.547L74.6083 90.8453V90.6158C74.6083 90.2716 74.4913 90.0423 74.2572 89.8128C74.0231 89.5834 73.7888 89.4686 73.4377 89.4686L54.8262 94.5168H54.4751C54.2409 94.5168 54.0068 94.6316 53.8897 94.861C53.6556 95.0905 53.5386 95.4348 53.5386 95.6643C53.5386 96.0085 53.6556 96.238 53.8897 96.4675L57.7524 99.9095C55.7625 101.172 53.6557 101.975 51.7828 102.319C50.144 102.663 48.5052 102.778 46.8664 102.778C36.3316 102.778 31.1813 96.0085 30.9472 95.6643L30.8301 95.5495C27.6697 91.4191 26.4992 87.8623 26.4992 81.6667C26.4992 73.75 28.8401 67.7838 33.5223 64.1123C38.7897 59.9819 45.4619 59.7524 47.3348 59.7524C48.3882 59.7524 49.3246 59.8672 49.9098 59.9819L50.3782 60.0966C56.465 61.4734 64.7758 63.3092 76.3641 86.0266C82.4509 98.0737 90.0593 105.876 99.6578 110.006C100.828 110.58 106.681 113.333 114.406 113.333C117.918 113.333 121.43 112.76 124.707 111.498C130.326 109.432 143.319 102.434 143.319 81.6667C143.67 68.3575 137.583 60.7851 132.55 56.8842Z" fill="white"/>
</svg>
